<svg width="167" height="48" viewBox="0 0 167 48" fill="none" xmlns="http://www.w3.org/2000/svg">
<g opacity="0.84">
<path fill-rule="evenodd" clip-rule="evenodd" d="M8 11.7333C8 9.67147 9.67147 8 11.7333 8H26.6667C28.7285 8 30.4 9.67147 30.4 11.7333V17.6H36.2667C38.3285 17.6 40 19.2715 40 21.3333V36.2667C40 38.3285 38.3285 40 36.2667 40H21.3333C19.2715 40 17.6 38.3285 17.6 36.2667V30.4H11.7333C9.67147 30.4 8 28.7285 8 26.6667V11.7333ZM17.6 27.2V30.4H20.8H28.2667C29.4449 30.4 30.4 29.4449 30.4 28.2667V20.8V17.6H27.2H19.7333C18.5551 17.6 17.6 18.5551 17.6 19.7333V27.2Z" fill="black"/>
</g>
<path d="M55.924 33.836C54.4867 33.836 53.2173 33.5467 52.116 32.968C51.0333 32.3893 50.2307 31.5213 49.708 30.364C49.1853 29.2067 49.0453 27.7413 49.288 25.968L50.996 13.9H54.356L52.592 26.472C52.4613 27.3867 52.5173 28.1707 52.76 28.824C53.0027 29.4587 53.4133 29.944 53.992 30.28C54.5707 30.5973 55.2987 30.756 56.176 30.756C57.5387 30.756 58.6773 30.364 59.592 29.58C60.5067 28.7773 61.0667 27.5827 61.272 25.996L62.98 13.9H66.34L64.604 26.108C64.3613 27.8813 63.82 29.3373 62.98 30.476C62.14 31.6147 61.104 32.464 59.872 33.024C58.64 33.5653 57.324 33.836 55.924 33.836ZM76.7781 33.5L77.8421 25.856C78.0101 24.6053 77.8981 23.672 77.5061 23.056C77.1141 22.44 76.3954 22.132 75.3501 22.132C74.3234 22.132 73.4088 22.496 72.6061 23.224C71.8221 23.9333 71.3181 24.9227 71.0941 26.192L70.0581 33.5H66.7261L68.6861 19.612H72.0181L71.7101 21.712C72.2701 20.9467 72.9608 20.3493 73.7821 19.92C74.6221 19.4907 75.5554 19.276 76.5821 19.276C78.3368 19.276 79.6154 19.8267 80.4181 20.928C81.2394 22.0293 81.5008 23.616 81.2021 25.688L80.1101 33.5H76.7781ZM90.0875 33.836C88.6128 33.836 87.3528 33.5 86.3075 32.828C85.2622 32.156 84.4968 31.2507 84.0115 30.112C83.5262 28.9547 83.3862 27.676 83.5915 26.276C83.7968 24.8947 84.2822 23.6813 85.0475 22.636C85.8128 21.5907 86.7742 20.7693 87.9315 20.172C89.0888 19.5747 90.3302 19.276 91.6555 19.276C93.1115 19.276 94.3622 19.612 95.4075 20.284C96.4715 20.956 97.2462 21.8707 97.7315 23.028C98.2355 24.1667 98.3755 25.436 98.1515 26.836C97.9648 28.1987 97.4795 29.412 96.6955 30.476C95.9302 31.5213 94.9688 32.3427 93.8115 32.94C92.6728 33.5373 91.4315 33.836 90.0875 33.836ZM90.2555 30.924C91.0208 30.924 91.7208 30.756 92.3555 30.42C92.9902 30.0653 93.5222 29.5613 93.9515 28.908C94.3995 28.2547 94.6888 27.4707 94.8195 26.556C94.9502 25.6787 94.8942 24.9133 94.6515 24.26C94.4088 23.6067 94.0168 23.1027 93.4755 22.748C92.9528 22.3747 92.2902 22.188 91.4875 22.188C90.7782 22.188 90.0968 22.356 89.4435 22.692C88.7902 23.028 88.2395 23.5227 87.7915 24.176C87.3435 24.8107 87.0542 25.6133 86.9235 26.584C86.7928 27.4427 86.8488 28.1987 87.0915 28.852C87.3528 29.5053 87.7542 30.0187 88.2955 30.392C88.8368 30.7467 89.4902 30.924 90.2555 30.924ZM107.592 33.836C106.659 33.836 105.754 33.7053 104.876 33.444C103.999 33.164 103.215 32.744 102.524 32.184C101.834 31.624 101.302 30.9147 100.928 30.056C100.555 29.1787 100.415 28.1427 100.508 26.948H103.532C103.514 27.8813 103.71 28.6467 104.12 29.244C104.531 29.8413 105.072 30.28 105.744 30.56C106.416 30.8213 107.098 30.952 107.788 30.952C108.554 30.952 109.244 30.8307 109.86 30.588C110.495 30.3453 110.999 29.9907 111.372 29.524C111.746 29.0573 111.932 28.488 111.932 27.816C111.932 26.64 111.186 25.8373 109.692 25.408L106.668 24.484C105.324 24.0733 104.279 23.504 103.532 22.776C102.804 22.0293 102.44 21.0493 102.44 19.836C102.44 18.5293 102.758 17.4187 103.392 16.504C104.046 15.5707 104.904 14.852 105.968 14.348C107.032 13.8253 108.199 13.564 109.468 13.564C110.756 13.564 111.904 13.7973 112.912 14.264C113.939 14.712 114.723 15.4027 115.264 16.336C115.824 17.2507 116.067 18.4173 115.992 19.836H112.912C112.931 18.996 112.763 18.3333 112.408 17.848C112.072 17.344 111.624 16.9893 111.064 16.784C110.504 16.56 109.898 16.448 109.244 16.448C108.666 16.448 108.096 16.5413 107.536 16.728C106.995 16.9147 106.538 17.2133 106.164 17.624C105.791 18.016 105.576 18.5293 105.52 19.164C105.408 20.3213 106.211 21.152 107.928 21.656L110.896 22.552C112.315 22.9627 113.36 23.5693 114.032 24.372C114.723 25.1747 115.068 26.164 115.068 27.34C115.068 28.348 114.863 29.2533 114.452 30.056C114.042 30.8587 113.491 31.5493 112.8 32.128C112.11 32.688 111.316 33.1173 110.42 33.416C109.524 33.696 108.582 33.836 107.592 33.836ZM123.63 33.836C122.211 33.836 120.998 33.5187 119.99 32.884C118.982 32.2493 118.245 31.3813 117.778 30.28C117.311 29.16 117.181 27.8907 117.386 26.472C117.591 25.0533 118.058 23.8027 118.786 22.72C119.533 21.6373 120.466 20.7973 121.586 20.2C122.725 19.584 124.003 19.276 125.422 19.276C126.822 19.276 127.998 19.584 128.95 20.2C129.921 20.816 130.621 21.6467 131.05 22.692C131.498 23.7373 131.629 24.904 131.442 26.192C131.423 26.3413 131.395 26.5187 131.358 26.724C131.321 26.9293 131.283 27.144 131.246 27.368H119.682L119.99 25.184H128.222C128.297 24.2133 128.054 23.448 127.494 22.888C126.953 22.3093 126.206 22.02 125.254 22.02C124.545 22.02 123.863 22.188 123.21 22.524C122.575 22.8413 122.034 23.308 121.586 23.924C121.157 24.54 120.867 25.3053 120.718 26.22L120.578 27.004C120.447 27.844 120.503 28.572 120.746 29.188C121.007 29.804 121.399 30.2707 121.922 30.588C122.463 30.9053 123.07 31.064 123.742 31.064C124.526 31.064 125.217 30.8867 125.814 30.532C126.411 30.1587 126.887 29.6827 127.242 29.104H130.742C130.369 29.9813 129.827 30.784 129.118 31.512C128.409 32.2213 127.587 32.7907 126.654 33.22C125.721 33.6307 124.713 33.836 123.63 33.836ZM143.276 33.5L144.34 25.856C144.508 24.6053 144.396 23.672 144.004 23.056C143.612 22.44 142.893 22.132 141.848 22.132C140.821 22.132 139.907 22.496 139.104 23.224C138.32 23.9333 137.816 24.9227 137.592 26.192L136.556 33.5H133.224L135.184 19.612H138.516L138.208 21.712C138.768 20.9467 139.459 20.3493 140.28 19.92C141.12 19.4907 142.053 19.276 143.08 19.276C144.835 19.276 146.113 19.8267 146.916 20.928C147.737 22.0293 147.999 23.616 147.7 25.688L146.608 33.5H143.276ZM155.885 33.836C154.56 33.836 153.412 33.5 152.441 32.828C151.489 32.156 150.789 31.26 150.341 30.14C149.912 29.02 149.8 27.76 150.005 26.36C150.192 25.016 150.649 23.812 151.377 22.748C152.105 21.6653 153.02 20.816 154.121 20.2C155.223 19.584 156.427 19.276 157.733 19.276C158.816 19.276 159.731 19.4907 160.477 19.92C161.224 20.3493 161.793 20.928 162.185 21.656L163.361 13.34H166.721L163.893 33.5H160.533L160.869 31.512C160.328 32.128 159.656 32.6693 158.853 33.136C158.051 33.6027 157.061 33.836 155.885 33.836ZM156.753 30.896C157.556 30.896 158.303 30.7093 158.993 30.336C159.684 29.944 160.253 29.412 160.701 28.74C161.168 28.0493 161.467 27.2747 161.597 26.416C161.765 25.184 161.532 24.176 160.897 23.392C160.263 22.608 159.367 22.216 158.209 22.216C157.407 22.216 156.66 22.412 155.969 22.804C155.279 23.196 154.7 23.728 154.233 24.4C153.785 25.0533 153.496 25.8093 153.365 26.668C153.253 27.4707 153.319 28.1987 153.561 28.852C153.823 29.4867 154.224 29.9907 154.765 30.364C155.307 30.7187 155.969 30.896 156.753 30.896Z" fill="black"/>
</svg>
