<svg width="167" height="48" viewBox="0 0 167 48" fill="none" xmlns="http://www.w3.org/2000/svg">
<g opacity="0.84">
<path d="M20 8C20 14.6274 14.6274 20 8 20V28H20V40H28C28 33.3726 33.3726 28 40 28V20H28V8H20Z" fill="white"/>
</g>
<path d="M55.924 39.336C54.4867 39.336 53.2173 39.0467 52.116 38.468C51.0333 37.8893 50.2307 37.0213 49.708 35.864C49.1853 34.7067 49.0453 33.2413 49.288 31.468L50.996 19.4H54.356L52.592 31.972C52.4613 32.8867 52.5173 33.6707 52.76 34.324C53.0027 34.9587 53.4133 35.444 53.992 35.78C54.5707 36.0973 55.2987 36.256 56.176 36.256C57.5387 36.256 58.6773 35.864 59.592 35.08C60.5067 34.2773 61.0667 33.0827 61.272 31.496L62.98 19.4H66.34L64.604 31.608C64.3613 33.3813 63.82 34.8373 62.98 35.976C62.14 37.1147 61.104 37.964 59.872 38.524C58.64 39.0653 57.324 39.336 55.924 39.336ZM76.7781 39L77.8421 31.356C78.0101 30.1053 77.8981 29.172 77.5061 28.556C77.1141 27.94 76.3954 27.632 75.3501 27.632C74.3234 27.632 73.4088 27.996 72.6061 28.724C71.8221 29.4333 71.3181 30.4227 71.0941 31.692L70.0581 39H66.7261L68.6861 25.112H72.0181L71.7101 27.212C72.2701 26.4467 72.9608 25.8493 73.7821 25.42C74.6221 24.9907 75.5554 24.776 76.5821 24.776C78.3368 24.776 79.6154 25.3267 80.4181 26.428C81.2394 27.5293 81.5008 29.116 81.2021 31.188L80.1101 39H76.7781ZM90.0875 39.336C88.6128 39.336 87.3528 39 86.3075 38.328C85.2622 37.656 84.4968 36.7507 84.0115 35.612C83.5262 34.4547 83.3862 33.176 83.5915 31.776C83.7968 30.3947 84.2822 29.1813 85.0475 28.136C85.8128 27.0907 86.7742 26.2693 87.9315 25.672C89.0888 25.0747 90.3302 24.776 91.6555 24.776C93.1115 24.776 94.3622 25.112 95.4075 25.784C96.4715 26.456 97.2462 27.3707 97.7315 28.528C98.2355 29.6667 98.3755 30.936 98.1515 32.336C97.9648 33.6987 97.4795 34.912 96.6955 35.976C95.9302 37.0213 94.9688 37.8427 93.8115 38.44C92.6728 39.0373 91.4315 39.336 90.0875 39.336ZM90.2555 36.424C91.0208 36.424 91.7208 36.256 92.3555 35.92C92.9902 35.5653 93.5222 35.0613 93.9515 34.408C94.3995 33.7547 94.6888 32.9707 94.8195 32.056C94.9502 31.1787 94.8942 30.4133 94.6515 29.76C94.4088 29.1067 94.0168 28.6027 93.4755 28.248C92.9528 27.8747 92.2902 27.688 91.4875 27.688C90.7782 27.688 90.0968 27.856 89.4435 28.192C88.7902 28.528 88.2395 29.0227 87.7915 29.676C87.3435 30.3107 87.0542 31.1133 86.9235 32.084C86.7928 32.9427 86.8488 33.6987 87.0915 34.352C87.3528 35.0053 87.7542 35.5187 88.2955 35.892C88.8368 36.2467 89.4902 36.424 90.2555 36.424ZM107.592 39.336C106.659 39.336 105.754 39.2053 104.876 38.944C103.999 38.664 103.215 38.244 102.524 37.684C101.834 37.124 101.302 36.4147 100.928 35.556C100.555 34.6787 100.415 33.6427 100.508 32.448H103.532C103.514 33.3813 103.71 34.1467 104.12 34.744C104.531 35.3413 105.072 35.78 105.744 36.06C106.416 36.3213 107.098 36.452 107.788 36.452C108.554 36.452 109.244 36.3307 109.86 36.088C110.495 35.8453 110.999 35.4907 111.372 35.024C111.746 34.5573 111.932 33.988 111.932 33.316C111.932 32.14 111.186 31.3373 109.692 30.908L106.668 29.984C105.324 29.5733 104.279 29.004 103.532 28.276C102.804 27.5293 102.44 26.5493 102.44 25.336C102.44 24.0293 102.758 22.9187 103.392 22.004C104.046 21.0707 104.904 20.352 105.968 19.848C107.032 19.3253 108.199 19.064 109.468 19.064C110.756 19.064 111.904 19.2973 112.912 19.764C113.939 20.212 114.723 20.9027 115.264 21.836C115.824 22.7507 116.067 23.9173 115.992 25.336H112.912C112.931 24.496 112.763 23.8333 112.408 23.348C112.072 22.844 111.624 22.4893 111.064 22.284C110.504 22.06 109.898 21.948 109.244 21.948C108.666 21.948 108.096 22.0413 107.536 22.228C106.995 22.4147 106.538 22.7133 106.164 23.124C105.791 23.516 105.576 24.0293 105.52 24.664C105.408 25.8213 106.211 26.652 107.928 27.156L110.896 28.052C112.315 28.4627 113.36 29.0693 114.032 29.872C114.723 30.6747 115.068 31.664 115.068 32.84C115.068 33.848 114.863 34.7533 114.452 35.556C114.042 36.3587 113.491 37.0493 112.8 37.628C112.11 38.188 111.316 38.6173 110.42 38.916C109.524 39.196 108.582 39.336 107.592 39.336ZM123.63 39.336C122.211 39.336 120.998 39.0187 119.99 38.384C118.982 37.7493 118.245 36.8813 117.778 35.78C117.311 34.66 117.181 33.3907 117.386 31.972C117.591 30.5533 118.058 29.3027 118.786 28.22C119.533 27.1373 120.466 26.2973 121.586 25.7C122.725 25.084 124.003 24.776 125.422 24.776C126.822 24.776 127.998 25.084 128.95 25.7C129.921 26.316 130.621 27.1467 131.05 28.192C131.498 29.2373 131.629 30.404 131.442 31.692C131.423 31.8413 131.395 32.0187 131.358 32.224C131.321 32.4293 131.283 32.644 131.246 32.868H119.682L119.99 30.684H128.222C128.297 29.7133 128.054 28.948 127.494 28.388C126.953 27.8093 126.206 27.52 125.254 27.52C124.545 27.52 123.863 27.688 123.21 28.024C122.575 28.3413 122.034 28.808 121.586 29.424C121.157 30.04 120.867 30.8053 120.718 31.72L120.578 32.504C120.447 33.344 120.503 34.072 120.746 34.688C121.007 35.304 121.399 35.7707 121.922 36.088C122.463 36.4053 123.07 36.564 123.742 36.564C124.526 36.564 125.217 36.3867 125.814 36.032C126.411 35.6587 126.887 35.1827 127.242 34.604H130.742C130.369 35.4813 129.827 36.284 129.118 37.012C128.409 37.7213 127.587 38.2907 126.654 38.72C125.721 39.1307 124.713 39.336 123.63 39.336ZM143.276 39L144.34 31.356C144.508 30.1053 144.396 29.172 144.004 28.556C143.612 27.94 142.893 27.632 141.848 27.632C140.821 27.632 139.907 27.996 139.104 28.724C138.32 29.4333 137.816 30.4227 137.592 31.692L136.556 39H133.224L135.184 25.112H138.516L138.208 27.212C138.768 26.4467 139.459 25.8493 140.28 25.42C141.12 24.9907 142.053 24.776 143.08 24.776C144.835 24.776 146.113 25.3267 146.916 26.428C147.737 27.5293 147.999 29.116 147.7 31.188L146.608 39H143.276ZM155.885 39.336C154.56 39.336 153.412 39 152.441 38.328C151.489 37.656 150.789 36.76 150.341 35.64C149.912 34.52 149.8 33.26 150.005 31.86C150.192 30.516 150.649 29.312 151.377 28.248C152.105 27.1653 153.02 26.316 154.121 25.7C155.223 25.084 156.427 24.776 157.733 24.776C158.816 24.776 159.731 24.9907 160.477 25.42C161.224 25.8493 161.793 26.428 162.185 27.156L163.361 18.84H166.721L163.893 39H160.533L160.869 37.012C160.328 37.628 159.656 38.1693 158.853 38.636C158.051 39.1027 157.061 39.336 155.885 39.336ZM156.753 36.396C157.556 36.396 158.303 36.2093 158.993 35.836C159.684 35.444 160.253 34.912 160.701 34.24C161.168 33.5493 161.467 32.7747 161.597 31.916C161.765 30.684 161.532 29.676 160.897 28.892C160.263 28.108 159.367 27.716 158.209 27.716C157.407 27.716 156.66 27.912 155.969 28.304C155.279 28.696 154.7 29.228 154.233 29.9C153.785 30.5533 153.496 31.3093 153.365 32.168C153.253 32.9707 153.319 33.6987 153.561 34.352C153.823 34.9867 154.224 35.4907 154.765 35.864C155.307 36.2187 155.969 36.396 156.753 36.396Z" fill="white"/>
</svg>
