<svg width="48" height="48" viewBox="0 0 48 48" fill="none" xmlns="http://www.w3.org/2000/svg">
<g opacity="0.84">
<path fill-rule="evenodd" clip-rule="evenodd" d="M8 11.7333C8 9.67147 9.67147 8 11.7333 8H26.6667C28.7285 8 30.4 9.67147 30.4 11.7333V17.6H36.2667C38.3285 17.6 40 19.2715 40 21.3333V36.2667C40 38.3285 38.3285 40 36.2667 40H21.3333C19.2715 40 17.6 38.3285 17.6 36.2667V30.4H11.7333C9.67147 30.4 8 28.7285 8 26.6667V11.7333ZM17.6 27.2V30.4H20.8H28.2667C29.4449 30.4 30.4 29.4449 30.4 28.2667V20.8V17.6H27.2H19.7333C18.5551 17.6 17.6 18.5551 17.6 19.7333V27.2Z" fill="black"/>
</g>
</svg>
